HIERARCHY
ROOT Hips
{
	OFFSET 0.000000 0.000000 0.000000
	CHANNELS 6 Xposition Yposition Zposition Zrotation Yrotation Xrotation 
	JOINT LHipJoint
	{
		OFFSET 0.000000 0.000000 0.000000
		CHANNELS 3 Zrotation Yrotation Xrotation
		JOINT LeftUpLeg
		{
			OFFSET 1.363060 -1.794630 0.839290
			CHANNELS 3 Zrotation Yrotation Xrotation
			JOINT LeftLeg
			{
				OFFSET 2.448110 -6.726130 0.000000
				CHANNELS 3 Zrotation Yrotation Xrotation
				JOINT LeftFoot
				{
					OFFSET 2.562200 -7.039590 0.000000
					CHANNELS 3 Zrotation Yrotation Xrotation
					JOINT LeftToeBase
					{
						OFFSET 0.157640 -0.433110 2.322550
						CHANNELS 3 Zrotation Yrotation Xrotation
						End Site
						{
							OFFSET 0.000000 0.000000 0.000000
						}
					}
				}
			}
		}
	}
	JOINT RHipJoint
	{
		OFFSET 0.000000 0.000000 0.000000
		CHANNELS 3 Zrotation Yrotation Xrotation
		JOINT RightUpLeg
		{
			OFFSET -1.305520 -1.794630 0.839290
			CHANNELS 3 Zrotation Yrotation Xrotation
			JOINT RightLeg
			{
				OFFSET -2.542530 -6.985550 0.000000
				CHANNELS 3 Zrotation Yrotation Xrotation
				JOINT RightFoot
				{
					OFFSET -2.568260 -7.056230 0.000000
					CHANNELS 3 Zrotation Yrotation Xrotation
					JOINT RightToeBase
					{
						OFFSET -0.164730 -0.452590 2.363150
						CHANNELS 3 Zrotation Yrotation Xrotation
						End Site
						{
							OFFSET 0.000000 0.000000 0.000000
						}
					}
				}
			}
		}
	}
}
MOTION
Frames: 22
Frame Time: 0.008333
-8.171105 17.493010 -0.896796 43.985050 87.000359 79.545772 -12.008096 1.196223 -2.926892 -9.222124 5.027845 -23.647783 -1.237012 1.261844 27.029336 0.814233 3.592700 13.726373 1.120600 0.000000 -64.551900 7.142652 0.586651 2.932284 6.945522 8.487592 -51.700962 3.480096 1.404670 7.560142 -0.831443 -2.011592 -5.415636 -0.709800 0.000001 -54.567700
-7.942951 17.498179 -0.853720 48.411312 86.896152 83.821477 -12.077018 1.263201 -3.029463 -9.119099 5.538596 -23.027068 -1.190610 1.287317 27.224905 0.881729 4.002913 14.542896 1.281400 0.000000 -62.360200 7.100594 0.579366 3.056486 7.234054 8.466888 -51.612005 3.590142 1.673523 5.672317 -0.742994 -1.782683 -4.986000 -0.725500 0.000000 -56.573500
-7.715182 17.491246 -0.809734 52.429511 86.773043 87.644123 -12.129607 1.331586 -3.127622 -9.014784 6.029115 -22.431629 -1.138766 1.316866 27.626971 0.973273 4.712503 15.028711 1.544200 0.000000 -60.026600 7.069462 0.572972 3.139924 7.616616 8.373803 -51.531448 3.687773 1.894465 4.174165 -0.688832 -1.650445 -4.728278 -0.736100 -0.000000 -58.271100
-7.487681 17.471795 -0.764678 55.974393 86.631366 90.959581 -12.167901 1.400200 -3.220721 -8.907953 6.498833 -21.872818 -1.081936 1.350892 28.231552 1.087756 5.703757 15.201385 1.902100 -0.000000 -57.622199 7.048227 0.560848 3.192131 8.071657 8.237092 -51.474608 3.771576 2.062816 3.073479 -0.665399 -1.614888 -4.588018 -0.748900 -0.000000 -59.544300
-7.260463 17.439496 -0.718542 58.950186 86.474888 93.686394 -12.195628 1.466616 -3.309249 -8.793609 6.953988 -21.368064 -1.021460 1.390151 29.033999 1.223480 6.933422 15.086285 2.331800 0.000001 -55.183600 7.034658 0.536262 3.226277 8.566383 8.099971 -51.460190 3.838119 2.174219 2.374302 -0.670457 -1.685676 -4.500993 -0.772000 0.000000 -60.366099
-7.033523 17.394287 -0.671477 61.274882 86.309377 95.757710 -12.217244 1.528392 -3.393710 -8.666231 7.403234 -20.935386 -0.959164 1.435361 30.024201 1.377913 8.341308 14.719811 2.800300 0.000000 -52.754000 7.025926 0.493307 3.255228 9.066740 8.006099 -51.517082 3.884578 2.222268 2.099316 -0.700782 -1.861537 -4.419959 -0.810300 0.000000 -60.733200
-6.806996 17.336328 -0.623721 62.883803 86.140176 97.122508 -12.237536 1.583891 -3.473732 -8.520660 7.853688 -20.589157 -0.896707 1.487045 31.183938 1.547658 9.859996 14.154578 3.272800 -0.000000 -50.436000 7.018545 0.427750 3.288730 9.544795 7.991255 -51.684479 3.909796 2.198215 2.297744 -0.751399 -2.120260 -4.332100 -0.863001 -0.000000 -60.592700
-6.581054 17.266087 -0.575687 63.689435 85.978271 97.707604 -12.263340 1.630414 -3.550926 -8.344466 8.321131 -20.347505 -0.836360 1.546559 32.498292 1.726639 11.408760 13.438356 3.712000 0.000001 -48.247300 7.006055 0.336292 3.337729 9.974012 8.103593 -51.996373 3.909353 2.096305 3.008728 -0.821472 -2.455125 -4.235210 -0.930400 -0.000000 -59.941501
-6.356008 17.184382 -0.527808 63.641307 85.830499 97.467518 -12.300686 1.667398 -3.625120 -8.127718 8.813044 -20.212011 -0.779320 1.614784 33.939552 1.908249 12.917606 12.634036 4.092500 -0.000000 -46.311700 6.982478 0.219452 3.403319 10.346261 8.364843 -52.485046 3.880843 1.908910 4.294104 -0.906453 -2.828450 -4.167528 -1.003900 0.000000 -58.710000
-6.132261 17.091990 -0.480398 62.655685 85.701397 96.323824 -12.353941 1.695747 -3.698184 -7.862763 9.347204 -20.193463 -0.728578 1.694283 35.496020 2.082988 14.309930 11.776382 4.388900 0.000000 -44.535900 6.942526 0.081706 3.484773 10.656648 8.795728 -53.196226 3.818497 1.627170 6.245864 -1.004265 -3.198456 -4.214868 -1.066900 0.000000 -56.625499
-5.910302 16.990265 -0.433680 60.736179 85.584654 94.261698 -12.425757 1.719664 -3.767972 -7.546299 9.915502 -20.256419 -0.683686 1.785737 37.124298 2.244450 15.544684 10.932679 4.601300 0.000000 -43.141600 6.885204 -0.064334 3.560869 10.927063 9.360639 -54.124794 3.718326 1.246812 8.916904 -1.104846 -3.496369 -4.456386 -1.095600 0.000000 -53.611800
-5.690753 16.880513 -0.387453 57.923029 85.465356 91.298075 -12.512502 1.746563 -3.834691 -7.185569 10.512278 -20.365751 -0.645885 1.891216 38.797299 2.385331 16.582507 10.129880 4.728500 0.000000 -42.082800 6.817184 -0.197067 3.605329 11.173900 10.008181 -55.257460 3.572216 0.767408 12.358993 -1.199317 -3.656501 -4.999773 -1.061700 -0.000000 -49.400200
-5.474128 16.764111 -0.341400 54.336866 85.327975 87.527160 -12.606398 1.783670 -3.900412 -6.788517 11.127962 -20.480234 -0.615382 2.012463 40.490411 2.500497 17.401428 9.382949 4.774800 -0.000000 -41.300100 6.750896 -0.288258 3.593655 11.399757 10.687706 -56.538915 3.367887 0.204563 16.545083 -1.284960 -3.660202 -5.920815 -0.949601 0.000000 -43.860800
-5.261137 16.642950 -0.295002 50.276476 85.156729 83.214769 -12.694772 1.836692 -3.968005 -6.367658 11.732767 -20.542305 -0.589572 2.148906 42.173057 2.587979 18.001527 8.703693 4.752600 0.000000 -40.821201 6.704616 -0.308216 3.501286 11.607847 11.326110 -57.857959 3.102242 -0.406046 21.329383 -1.359034 -3.513696 -7.239722 -0.760000 0.000000 -37.105500
-5.052342 16.519139 -0.247946 46.016168 84.953240 78.620988 -12.766678 1.903504 -4.044702 -5.922572 12.303966 -20.521996 -0.565278 2.299289 43.831744 2.647637 18.390052 8.078224 4.669000 -0.000000 -40.558900 6.690905 -0.241380 3.327733 11.791765 11.899039 -59.087314 2.781890 -1.012439 26.457388 -1.430224 -3.297088 -8.895449 -0.518800 0.000000 -29.667000
-4.847945 16.395237 -0.200153 41.751813 84.730494 73.946049 -12.815584 1.975867 -4.137015 -5.446762 12.815233 -20.413666 -0.538648 2.461081 45.460485 2.681921 18.587623 7.484010 4.531500 -0.000000 -40.432700 6.713867 -0.093618 3.088504 11.959844 12.407823 -60.109358 2.428865 -1.565324 31.625227 -1.508736 -3.108255 -10.763779 -0.258400 0.000000 -22.478100
-4.648114 16.273873 -0.151726 37.553358 84.501595 69.275134 -12.840375 2.043759 -4.248368 -4.935639 13.241808 -20.232944 -0.506755 2.631859 47.061108 2.695329 18.627015 6.887086 4.346500 0.000000 -40.340000 6.768997 0.112486 2.803696 12.138801 12.865197 -60.844890 2.073408 -2.036074 36.580097 -1.602059 -3.015932 -12.739124 0.002900 0.000000 -16.338601
-4.452584 16.157650 -0.102753 33.454377 84.278022 64.666744 -12.842074 2.097887 -4.375335 -4.393878 13.555336 -20.015908 -0.467275 2.808489 48.639544 2.694166 18.553887 6.253670 4.122400 0.000000 -40.207400 6.848009 0.346806 2.492479 12.362858 13.281839 -61.262641 1.744253 -2.418404 41.150059 -1.715327 -3.050535 -14.770896 0.264400 -0.000000 -11.582700
-4.261070 16.048847 -0.053121 29.506915 84.060712 60.195205 -12.822896 2.132731 -4.510746 -3.841123 13.730701 -19.802132 -0.419009 2.987799 50.203433 2.685287 18.420375 5.545924 3.866600 0.000001 -39.948301 6.942857 0.582518 2.166854 12.657990 13.653976 -61.365292 1.461603 -2.721721 45.246293 -1.850298 -3.206554 -16.853954 0.536500 -0.000000 -8.096700
-4.073116 15.949355 -0.002515 25.814670 83.847551 55.986991 -12.785817 2.145302 -4.644064 -3.307955 13.746035 -19.636779 -0.361311 3.165939 51.759888 2.675589 18.280054 4.733099 3.586400 0.000000 -39.511500 7.046585 0.798622 1.836501 13.033142 13.971500 -61.181452 1.235065 -2.960645 48.827417 -2.006511 -3.464710 -18.981412 0.830399 0.000000 -5.612100
-3.887964 15.860586 0.049531 22.515578 83.635998 52.204112 -12.735170 2.134564 -4.763325 -2.829887 13.585245 -19.568331 -0.294311 3.338844 53.314888 2.671282 18.180661 3.792300 3.286900 -0.000000 -38.861200 7.152632 0.981299 1.510295 13.479354 14.223259 -60.757612 1.065480 -3.148746 51.881060 -2.181095 -3.799338 -21.126665 1.152400 0.000000 -3.860600
-3.705189 15.783511 0.103567 19.732518 83.419472 48.983470 -12.675730 2.102644 -4.859337 -2.440063 13.248405 -19.631621 -0.219377 3.503105 54.867757 2.677107 18.157102 2.711973 2.969900 -0.000001 -37.998800 7.256000 1.124799 1.194948 13.974571 14.399888 -60.139054 0.947726 -3.296100 54.417740 -2.367887 -4.178675 -23.244200 1.501400 -0.000001 -2.619600
